<?xml version="1.0" encoding="UTF-8"?><svg id="Layer_2" xmlns="http://www.w3.org/2000/svg" viewBox="0 0 188.61 164.78"><defs><style>.cls-1{stroke:#000;stroke-width:9px;}.cls-1,.cls-2{fill:#fff;stroke-linecap:round;stroke-linejoin:round;}.cls-2{stroke:#fff;stroke-width:8px;}.cls-3{stroke-width:0px;}</style></defs><g id="Layer_1-2"><path class="cls-3" d="m187.02,56.41l-1.92-7.81c2.74-3.06,3.21-7.19,3.26-9.22.05-2.03-.23-3.97-.83-5.76,1.44-5.65,1-19.94.94-21.63-.02-.61-.29-1.19-.74-1.6-.45-.41-1.05-.62-1.67-.59-2.3.14-4.44,1.25-5.87,3.06l-5.19,6.57c-4.72-.38-9.49-.38-14.21,0l-5.19-6.57c-1.43-1.81-3.57-2.92-5.87-3.06-.61-.04-1.21.18-1.67.59-.45.41-.72.99-.74,1.6-.06,1.69-.49,15.97.94,21.63-.6,1.8-.87,3.73-.83,5.76.05,1.96.48,5.87,2.97,8.89l-12.28,17.54-3.51,1.13c-14.55,4.69-27.9,12.02-39.67,21.77-9.58,7.94-17.77,17.2-24.42,27.62.53-11.79,3.18-34.23,14.8-54.33,5.07-8.78,6.43-16.74,4.03-23.68-3.25-9.41-12.61-14.36-17.89-16.47-1.58-.63-3.3-.59-4.84.1-1.54.69-2.71,1.95-3.28,3.54-1.11,3.07.37,6.48,3.36,7.78,3.09,1.34,8.56,4.37,10.38,9.64,1.32,3.81.58,8.33-2.19,13.44-15.4,28.36-21.47,53.27-18.04,74.03,1.5,9.07,6.89,13.93,15.3,13.93.54,0,1.1-.02,1.66-.06,1.19,1.37,2.47,2.42,3.83,3.14-.29,2.51-.33,4.98.03,7.24.15.93.85,1.67,1.77,1.86,2.66.58,8.66.77,15.64.77,8.62,0,18.73-.3,25.89-.56,1.7-.06,3.23-.91,4.18-2.32.96-1.41,1.17-3.14.6-4.75-1.18-3.29-4.19-5.57-7.67-5.82l-8.93-.64c2.17-1.43,4.29-3.1,6.15-5.03l30.11-12.05,2.71,5.51-1.33,12.37c-.2,1.83.33,3.63,1.49,5.06,1.16,1.43,2.81,2.32,4.65,2.51l5.25.53.31.64c1.15,2.33,3.57,3.84,6.16,3.84h10.9c1.62,0,3.07-.84,3.87-2.25.81-1.41.8-3.08-.02-4.48-1.29-2.2-3.48-3.73-5.99-4.18l-1.26-.23-5.33-22.62,14.93-26.95c6.68-12.05,8.54-26.05,5.25-39.43Zm-35.22-41.01c.08.08.16.17.23.27l5.95,7.54c.48.61,1.23.93,2,.86,5.25-.49,10.58-.49,15.83,0,.77.07,1.52-.25,2-.86l5.95-7.54c.07-.09.15-.18.23-.27.09,6.42-.09,14.91-1.01,17.53-.18.51-.17,1.07.03,1.58.56,1.44.83,3.04.79,4.76-.07,2.84-.89,6.52-4.46,7.89-1.36.52-2.6,1.32-3.69,2.36l-2.34,2.26c-.73.67-4.31,2.65-5.41,2.82-1.1-.17-4.69-2.15-5.41-2.81l-2.34-2.26c-1.08-1.05-2.33-1.84-3.69-2.36-3.57-1.37-4.4-5.04-4.46-7.89-.04-1.72.23-3.32.79-4.76.2-.51.21-1.07.03-1.58-.92-2.62-1.11-11.11-1.01-17.53Zm-90.45,114.23c-3.26-19.74,2.64-43.66,17.55-71.12,3.41-6.27,4.24-12.02,2.49-17.09-1.25-3.62-4.49-8.69-12.82-12.31-.78-.34-1.23-1.3-.94-2.09.17-.46.53-.82,1.01-.98.39-.13.81-.1,1.19.05,4.57,1.84,12.58,6.04,15.24,13.72,1.95,5.63.71,12.34-3.67,19.92-9.06,15.67-12.78,32.54-14.31,43.92-.78,5.8-1.08,10.75-1.19,14.42-.16,5.47.66,10.94,2.49,16.1.02.05.03.1.05.14.72,2.01,1.51,3.81,2.35,5.4-5.35-.44-8.38-3.71-9.44-10.08Zm92.04,17.37c-.62-.06-1.18-.36-1.57-.85-.39-.48-.57-1.09-.5-1.71l.56-5.22,3.94,8.02-2.43-.25Zm11.89-30.79l-1.71-7.27c-.49-2.07-.15-4.22.95-6.04l10.54-17.4c.65-1.07.31-2.47-.77-3.12-1.07-.65-2.47-.31-3.12.77l-10.54,17.4c-1.72,2.85-2.25,6.2-1.49,9.44l8.94,37.93c.21.88.92,1.56,1.81,1.72l2.73.49c1.15.21,2.16.88,2.79,1.87h-10.75c-.88,0-1.7-.51-2.08-1.3l-20.52-41.77c-.54-1.1-.83-2.34-.83-3.56v-17.81c0-1.26-1.02-2.27-2.27-2.27s-2.27,1.02-2.27,2.27v17.81c0,1.92.45,3.85,1.29,5.57l5.43,11.06-23.36,9.35c.62-1.34,1.1-2.76,1.43-4.27,1.34-6.25-.78-10.96-.87-11.16-.52-1.14-1.86-1.63-3-1.12-1.14.52-1.65,1.86-1.14,3,.26.59,6.15,14.53-15.56,24.77l-6.66-.48c-1.25-.09-2.34.85-2.43,2.11-.09,1.25.85,2.34,2.11,2.43l23.84,1.72c1.69.12,3.15,1.23,3.72,2.82.11.31,0,.55-.08.66-.08.12-.26.31-.58.32-19.14.7-33.25.74-38.81.13-.55-9.27,5.56-22.34,5.64-22.52.54-1.14.05-2.49-1.08-3.03-1.13-.54-2.49-.05-3.03,1.08-.2.42-3.33,7.11-5.03,14.67-4.41-3.64-7.05-12.97-7.91-17.36,6.98-12.63,16.16-23.7,27.27-32.91,11.32-9.39,24.16-16.43,38.16-20.95l4.24-1.37c.47-.15.88-.45,1.17-.86l12.59-17.99c.26.12.53.24.81.35.79.3,1.51.77,2.15,1.39l2.34,2.26c.99.96,6.09,4.09,8.57,4.09s7.58-3.13,8.57-4.09l2.34-2.26c.64-.62,1.37-1.09,2.15-1.39.04-.02.08-.03.12-.05l1.51,6.14c3.02,12.26,1.31,25.1-4.81,36.14l-12.51,22.57Z"/><rect class="cls-2" x="15.34" y="131.78" width="120" height="29"/><path class="cls-1" d="m4.87,142.09l-.36-109.77c-.03-9.61-.05-14.41,1.81-18.08,1.63-3.23,4.25-5.87,7.47-7.52,3.66-1.88,8.47-1.9,18.07-1.93l82.33-.27c9.61-.03,14.41-.05,18.08,1.81,3.23,1.63,5.87,4.25,7.52,7.47,1.88,3.66,1.9,8.47,1.93,18.07l.31,92.62-120.06.4c-9.47.03-17.13,7.74-17.1,17.21Zm0,0c.03,9.47,7.74,17.13,17.21,17.1l120.06-.4M47.41,39.03l51.46-.17m-51.34,34.47l51.46-.17m34.47,51.34l.11,34.3"/></g></svg>